<svg width="32" height="32" viewBox="0 0 512 512" fill="none" xmlns="http://www.w3.org/2000/svg">
  <rect width="512" height="512" rx="112" fill="#C26A4A"/>
  <path d="M256 80C256 80 176 160 176 256C176 288 184 316 200 340C180 308 176 272 192 240C208 208 256 176 256 176C256 176 288 208 304 248C320 288 316 328 296 360C324 324 340 284 340 240C340 152 256 80 256 80Z" fill="#FFF5EB" fill-opacity="0.95"/>
  <path d="M256 160C256 160 208 208 208 272C208 296 216 316 232 332C216 308 216 280 232 256C248 232 256 224 256 224C256 224 280 248 292 280C304 312 296 344 272 368C300 340 316 300 316 260C316 196 256 160 256 160Z" fill="#E8825A" fill-opacity="0.9"/>
  <path d="M144 400C144 400 192 432 256 432C320 432 368 400 368 400" stroke="#FFF5EB" stroke-opacity="0.3" stroke-width="16" stroke-linecap="round"/>
</svg>
